<svg width="22" height="22" viewBox="0 0 22 22" fill="none" xmlns="http://www.w3.org/2000/svg">
<rect width="22" height="22" fill="#1E2A39"/>
<path d="M2.77084 4.32644L16.7856 18.3412C17.2113 18.7669 17.9046 18.7637 18.3342 18.3342C18.7638 17.9046 18.7669 17.2112 18.3412 16.7855L4.32647 2.77081C3.90077 2.3451 3.20742 2.34824 2.77785 2.77782C2.34827 3.20739 2.34513 3.90074 2.77084 4.32644Z" fill="white"/>
<path d="M4.32644 18.3412L18.3412 4.32644C18.7669 3.90074 18.7637 3.20739 18.3342 2.77782C17.9046 2.34824 17.2112 2.3451 16.7855 2.77081L2.77081 16.7855C2.3451 17.2112 2.34824 17.9046 2.77782 18.3342C3.20739 18.7637 3.90074 18.7669 4.32644 18.3412Z" fill="white"/>
</svg>
