<svg width="158" height="15" viewBox="0 0 158 15" fill="none" xmlns="http://www.w3.org/2000/svg">
<path d="M2.14577e-06 7.82C2.14577e-06 6.46 0.313336 5.24 0.940002 4.16C1.58 3.08 2.44 2.24 3.52 1.64C4.61334 1.02667 5.80667 0.720002 7.1 0.720002C8.58 0.720002 9.89334 1.08667 11.04 1.82C12.2 2.54 13.04 3.56667 13.56 4.9H10.82C10.46 4.16667 9.96 3.62 9.32 3.26C8.68 2.9 7.94 2.72 7.1 2.72C6.18 2.72 5.36 2.92667 4.64 3.34C3.92 3.75334 3.35334 4.34667 2.94 5.12C2.54 5.89334 2.34 6.79334 2.34 7.82C2.34 8.84667 2.54 9.74667 2.94 10.52C3.35334 11.2933 3.92 11.8933 4.64 12.32C5.36 12.7333 6.18 12.94 7.1 12.94C7.94 12.94 8.68 12.76 9.32 12.4C9.96 12.04 10.46 11.4933 10.82 10.76H13.56C13.04 12.0933 12.2 13.12 11.04 13.84C9.89334 14.56 8.58 14.92 7.1 14.92C5.79334 14.92 4.6 14.62 3.52 14.02C2.44 13.4067 1.58 12.56 0.940002 11.48C0.313336 10.4 2.14577e-06 9.18 2.14577e-06 7.82ZM15.4688 9.24C15.4688 8.13334 15.6954 7.15334 16.1488 6.3C16.6154 5.44667 17.2421 4.78667 18.0288 4.32C18.8288 3.84 19.7088 3.6 20.6688 3.6C21.5354 3.6 22.2888 3.77334 22.9288 4.12C23.5821 4.45334 24.1021 4.87334 24.4888 5.38V3.78H26.7888V14.8H24.4888V13.16C24.1021 13.68 23.5754 14.1133 22.9088 14.46C22.2421 14.8067 21.4821 14.98 20.6288 14.98C19.6821 14.98 18.8154 14.74 18.0288 14.26C17.2421 13.7667 16.6154 13.0867 16.1488 12.22C15.6954 11.34 15.4688 10.3467 15.4688 9.24ZM24.4888 9.28C24.4888 8.52 24.3288 7.86 24.0088 7.3C23.7021 6.74 23.2954 6.31334 22.7888 6.02C22.2821 5.72667 21.7354 5.58 21.1488 5.58C20.5621 5.58 20.0154 5.72667 19.5088 6.02C19.0021 6.3 18.5888 6.72 18.2688 7.28C17.9621 7.82667 17.8088 8.48 17.8088 9.24C17.8088 10 17.9621 10.6667 18.2688 11.24C18.5888 11.8133 19.0021 12.2533 19.5088 12.56C20.0288 12.8533 20.5754 13 21.1488 13C21.7354 13 22.2821 12.8533 22.7888 12.56C23.2954 12.2667 23.7021 11.84 24.0088 11.28C24.3288 10.7067 24.4888 10.04 24.4888 9.28ZM32.0634 5.38C32.3968 4.82 32.8368 4.38667 33.3834 4.08C33.9434 3.76 34.6034 3.6 35.3634 3.6V5.96H34.7834C33.8901 5.96 33.2101 6.18667 32.7434 6.64C32.2901 7.09334 32.0634 7.88 32.0634 9V14.8H29.7834V3.78H32.0634V5.38ZM47.5592 9.02C47.5592 9.43334 47.5326 9.80667 47.4792 10.14H39.0592C39.1259 11.02 39.4526 11.7267 40.0392 12.26C40.6259 12.7933 41.3459 13.06 42.1992 13.06C43.4259 13.06 44.2926 12.5467 44.7992 11.52H47.2592C46.9259 12.5333 46.3192 13.3667 45.4392 14.02C44.5726 14.66 43.4926 14.98 42.1992 14.98C41.1459 14.98 40.1992 14.7467 39.3592 14.28C38.5326 13.8 37.8792 13.1333 37.3992 12.28C36.9326 11.4133 36.6992 10.4133 36.6992 9.28C36.6992 8.14667 36.9259 7.15334 37.3792 6.3C37.8459 5.43334 38.4926 4.76667 39.3192 4.3C40.1592 3.83334 41.1192 3.6 42.1992 3.6C43.2392 3.6 44.1659 3.82667 44.9792 4.28C45.7926 4.73334 46.4259 5.37334 46.8792 6.2C47.3326 7.01334 47.5592 7.95334 47.5592 9.02ZM45.1792 8.3C45.1659 7.46 44.8659 6.78667 44.2792 6.28C43.6926 5.77334 42.9659 5.52 42.0992 5.52C41.3126 5.52 40.6392 5.77334 40.0792 6.28C39.5192 6.77334 39.1859 7.44667 39.0792 8.3H45.1792ZM59.903 9.02C59.903 9.43334 59.8763 9.80667 59.823 10.14H51.403C51.4696 11.02 51.7963 11.7267 52.383 12.26C52.9696 12.7933 53.6896 13.06 54.543 13.06C55.7696 13.06 56.6363 12.5467 57.143 11.52H59.603C59.2696 12.5333 58.663 13.3667 57.783 14.02C56.9163 14.66 55.8363 14.98 54.543 14.98C53.4896 14.98 52.543 14.7467 51.703 14.28C50.8763 13.8 50.223 13.1333 49.743 12.28C49.2763 11.4133 49.043 10.4133 49.043 9.28C49.043 8.14667 49.2696 7.15334 49.723 6.3C50.1896 5.43334 50.8363 4.76667 51.663 4.3C52.503 3.83334 53.463 3.6 54.543 3.6C55.583 3.6 56.5096 3.82667 57.323 4.28C58.1363 4.73334 58.7696 5.37334 59.223 6.2C59.6763 7.01334 59.903 7.95334 59.903 9.02ZM57.523 8.3C57.5096 7.46 57.2096 6.78667 56.623 6.28C56.0363 5.77334 55.3096 5.52 54.443 5.52C53.6563 5.52 52.983 5.77334 52.423 6.28C51.863 6.77334 51.5296 7.44667 51.423 8.3H57.523ZM64.4267 5.38C64.7601 4.82 65.2001 4.38667 65.7467 4.08C66.3067 3.76 66.9667 3.6 67.7267 3.6V5.96H67.1467C66.2534 5.96 65.5734 6.18667 65.1067 6.64C64.6534 7.09334 64.4267 7.88 64.4267 9V14.8H62.1467V3.78H64.4267V5.38ZM79.5425 5.04C79.5425 5.74667 79.3758 6.41334 79.0425 7.04C78.7092 7.66667 78.1758 8.18 77.4425 8.58C76.7092 8.96667 75.7692 9.16 74.6225 9.16H72.1025V14.8H69.8225V0.900002H74.6225C75.6892 0.900002 76.5892 1.08667 77.3225 1.46C78.0692 1.82 78.6225 2.31334 78.9825 2.94C79.3558 3.56667 79.5425 4.26667 79.5425 5.04ZM74.6225 7.3C75.4892 7.3 76.1358 7.10667 76.5625 6.72C76.9892 6.32 77.2025 5.76 77.2025 5.04C77.2025 3.52 76.3425 2.76 74.6225 2.76H72.1025V7.3H74.6225ZM80.957 9.24C80.957 8.13334 81.1837 7.15334 81.637 6.3C82.1037 5.44667 82.7304 4.78667 83.517 4.32C84.317 3.84 85.197 3.6 86.157 3.6C87.0237 3.6 87.777 3.77334 88.417 4.12C89.0704 4.45334 89.5904 4.87334 89.977 5.38V3.78H92.277V14.8H89.977V13.16C89.5904 13.68 89.0637 14.1133 88.397 14.46C87.7304 14.8067 86.9704 14.98 86.117 14.98C85.1704 14.98 84.3037 14.74 83.517 14.26C82.7304 13.7667 82.1037 13.0867 81.637 12.22C81.1837 11.34 80.957 10.3467 80.957 9.24ZM89.977 9.28C89.977 8.52 89.817 7.86 89.497 7.3C89.1904 6.74 88.7837 6.31334 88.277 6.02C87.7704 5.72667 87.2237 5.58 86.637 5.58C86.0504 5.58 85.5037 5.72667 84.997 6.02C84.4904 6.3 84.077 6.72 83.757 7.28C83.4504 7.82667 83.297 8.48 83.297 9.24C83.297 10 83.4504 10.6667 83.757 11.24C84.077 11.8133 84.4904 12.2533 84.997 12.56C85.517 12.8533 86.0637 13 86.637 13C87.2237 13 87.7704 12.8533 88.277 12.56C88.7837 12.2667 89.1904 11.84 89.497 11.28C89.817 10.7067 89.977 10.04 89.977 9.28ZM97.9317 5.64V11.74C97.9317 12.1533 98.0251 12.4533 98.2117 12.64C98.4117 12.8133 98.7451 12.9 99.2117 12.9H100.612V14.8H98.8117C97.7851 14.8 96.9984 14.56 96.4517 14.08C95.9051 13.6 95.6317 12.82 95.6317 11.74V5.64H94.3317V3.78H95.6317V1.04H97.9317V3.78H100.612V5.64H97.9317ZM108.413 3.6C109.253 3.6 110 3.78 110.653 4.14C111.32 4.5 111.84 5.03334 112.213 5.74C112.6 6.44667 112.793 7.3 112.793 8.3V14.8H110.533V8.64C110.533 7.65334 110.286 6.9 109.793 6.38C109.3 5.84667 108.626 5.58 107.773 5.58C106.92 5.58 106.24 5.84667 105.733 6.38C105.24 6.9 104.993 7.65334 104.993 8.64V14.8H102.713V2.86102e-06H104.993V5.06C105.38 4.59334 105.866 4.23334 106.453 3.98C107.053 3.72667 107.706 3.6 108.413 3.6ZM127.121 14.8H124.841L117.981 4.42V14.8H115.701V0.880002H117.981L124.841 11.24V0.880002H127.121V14.8ZM134.895 14.98C133.855 14.98 132.915 14.7467 132.075 14.28C131.235 13.8 130.575 13.1333 130.095 12.28C129.615 11.4133 129.375 10.4133 129.375 9.28C129.375 8.16 129.622 7.16667 130.115 6.3C130.609 5.43334 131.282 4.76667 132.135 4.3C132.989 3.83334 133.942 3.6 134.995 3.6C136.049 3.6 137.002 3.83334 137.855 4.3C138.709 4.76667 139.382 5.43334 139.875 6.3C140.369 7.16667 140.615 8.16 140.615 9.28C140.615 10.4 140.362 11.3933 139.855 12.26C139.349 13.1267 138.655 13.8 137.775 14.28C136.909 14.7467 135.949 14.98 134.895 14.98ZM134.895 13C135.482 13 136.029 12.86 136.535 12.58C137.055 12.3 137.475 11.88 137.795 11.32C138.115 10.76 138.275 10.08 138.275 9.28C138.275 8.48 138.122 7.80667 137.815 7.26C137.509 6.7 137.102 6.28 136.595 6C136.089 5.72 135.542 5.58 134.955 5.58C134.369 5.58 133.822 5.72 133.315 6C132.822 6.28 132.429 6.7 132.135 7.26C131.842 7.80667 131.695 8.48 131.695 9.28C131.695 10.4667 131.995 11.3867 132.595 12.04C133.209 12.68 133.975 13 134.895 13ZM157.669 3.78L154.249 14.8H151.849L149.629 6.66L147.409 14.8H145.009L141.569 3.78H143.889L146.189 12.64L148.529 3.78H150.909L153.149 12.6L155.429 3.78H157.669Z" fill="white"/>
</svg>
